PathFileType	4	(x/y/z)	A01_FAST_T0024.trc
DataRate	CameraRate	NumFrames	NumMarkers	Units	OrigDataRate	OrigDataStartFrame	OrigNumFrames
240	240	5	48	mm	240	1	290
Frame#	Time	TOP_HEAD			R_AC			L_AC			R_ASIS			L_ASIS			R_PSIS			L_PSIS			SACRAL			L_IC			R_IC			L_GT			R_GT			R_LAT_KNEE			R_MED_KNEE			L_MED_KNEE			L_LAT_KNEE			R_TOE			L_TOE			R_1ST_MET			L_1ST_MET			L_5TH_MET			R_5TH_MET			R_LAT_ANK			R_MED_ANK			L_MED_ANK			L_LAT_ANK			L_HEEL_SUP			R_HEEL_SUP			L_HEEL_LAT			R_HEEL_LAT			L_HEEL_MED			R_HEEL_MED			R_LL_PROX_POST			R_LL_PROX_ANT			R_LL_DIST_ANT			R_LL_DIST_POST			R_THIGH_PROX_POST			R_THIGH_PROX_ANT			R_THIGH_DIST_ANT			R_THIGH_DIST_POST			L_PROS_PROX_ANT			L_PROS_PROX_POST			L_PROS_DIST_POST			L_PROS_DIST_ANT			L_THIGH_PROX_ANT			L_THIGH_PROX_POST			L_THIGH_DIST_POST			L_THIGH_DIST_ANT			
		X1	Y1	Z1	X2	Y2	Z2	X3	Y3	Z3	X4	Y4	Z4	X5	Y5	Z5	X6	Y6	Z6	X7	Y7	Z7	X8	Y8	Z8	X9	Y9	Z9	X10	Y10	Z10	X11	Y11	Z11	X12	Y12	Z12	X13	Y13	Z13	X14	Y14	Z14	X15	Y15	Z15	X16	Y16	Z16	X17	Y17	Z17	X18	Y18	Z18	X19	Y19	Z19	X20	Y20	Z20	X21	Y21	Z21	X22	Y22	Z22	X23	Y23	Z23	X24	Y24	Z24	X25	Y25	Z25	X26	Y26	Z26	X27	Y27	Z27	X28	Y28	Z28	X29	Y29	Z29	X30	Y30	Z30	X31	Y31	Z31	X32	Y32	Z32	X33	Y33	Z33	X34	Y34	Z34	X35	Y35	Z35	X36	Y36	Z36	X37	Y37	Z37	X38	Y38	Z38	X39	Y39	Z39	X40	Y40	Z40	X41	Y41	Z41	X42	Y42	Z42	X43	Y43	Z43	X44	Y44	Z44	X45	Y45	Z45	X46	Y46	Z46	X47	Y47	Z47	X48	Y48	Z48	

1	0	-639.56	1753.9	282.58	-845.13	1555.7	542.25	-920.51	1559.9	89.296	-888.69	1089	521.15	-876.44	1025.1	171.16	-1100.9	1103.9	384.78	-1086.8	1087.4	256.28	-1113.1	1067.7	319.85	-930.05	1160.4	128.09	-913.38	1201	525.95	-929.38	943.63	128.44	-974.05	988.55	558.73	-1098.4	598.08	481.06	NaN	NaN	NaN	-760.41	571.62	355.92	-793.12	568.7	199.99	-1059	65.097	357.16	-387.6	223.15	229.16	-1139	54.483	314.5	-439.5	159.1	286.76	-468.62	138.08	159.72	-1163.4	45.396	449.36	-1250.6	151.41	431.51	-1243.4	161.71	329.97	-591.8	166.88	278.23	-618.81	146.5	213.45	-663.05	56.008	255.58	-1356.7	151.77	376.95	-641.46	35.956	221.71	-1355.7	124.94	409.26	-628.18	39.586	285.69	-1352.7	123.82	348.3	-1238.2	453.24	472.26	-1173.7	425.5	491.91	-1189.6	354.13	471.98	-1241.7	371.05	459.96	-1052.3	864.46	530.43	-980.21	862.88	539.74	-1002.4	774.6	526.12	-1070.6	777.85	515.56	-712.34	518.1	207.26	-760.03	491.76	198.64	-735.44	433.62	204.26	-692.54	465.46	212.95	-819.36	824.75	172.75	-882.79	806.24	144.73	-850.16	739.54	163.01	-793.16	757.26	188.64
2	0.0041811	-634.03	1752.6	282.08	-839.52	1554.5	541.69	-915.18	1558.5	88.814	-883.48	1087.8	521.01	-870.2	1023.9	170.94	-1095.2	1102.5	383.88	-1080.9	1085.8	255.46	-1107.4	1066.2	318.98	-924.47	1159	127.8	-908.21	1199.8	525.51	-922.82	942.24	128.19	-969.03	987.51	558.49	-1094.6	597.55	480.95	NaN	NaN	NaN	-754.42	570.52	356.59	-786.42	567.53	200.42	-1059	65.056	357.17	-380.2	222.85	231.43	-1138.9	54.432	314.42	-432.23	158.67	288.79	-460.82	137.74	161.55	-1163.2	45.445	449.34	-1249.8	152.04	431.45	-1242.6	162.26	329.93	-584.61	166.09	279.67	-611.22	145.71	214.6	-655.51	55.301	256.56	-1355.9	152.93	376.9	-633.73	35.326	222.78	-1355.1	126.06	409.2	-620.83	38.828	286.71	-1352	124.97	348.35	-1235.3	453.69	472.12	-1171	425.51	491.82	-1187.4	354.25	471.87	-1239.4	371.55	459.95	-1047.6	863.78	530.19	-975.52	861.95	539.64	-997.98	773.75	526.04	-1066.2	777.2	515.33	-705.57	517.11	208.05	-753.17	490.63	199.22	-728.45	432.56	204.92	-685.7	464.5	213.82	-812.61	823.66	173.05	-876	805.11	144.94	-843.37	738.44	163.46	-786.44	756.19	189.11
3	0.0083622	-628.26	1751.2	281.55	-833.67	1553.2	541.1	-909.6	1557	88.297	-878.03	1086.6	520.88	-863.67	1022.7	170.73	-1089.4	1101.1	382.95	-1074.7	1084.1	254.61	-1101.4	1064.6	318.07	-918.59	1157.6	127.49	-902.81	1198.5	525.06	-915.96	940.82	127.94	-963.79	986.43	558.25	-1090.6	597	480.84	NaN	NaN	NaN	-748.18	569.37	357.26	-779.46	566.31	200.84	-1059	65.014	357.19	-372.59	222.34	233.78	-1138.8	54.376	314.35	-424.82	158.07	290.88	-452.85	137.25	163.45	-1163	45.494	449.33	-1248.9	152.7	431.39	-1241.7	162.86	329.89	-577.27	165.21	281.15	-603.47	144.84	215.78	-647.87	54.593	257.59	-1355	154.16	376.84	-625.91	34.68	223.89	-1354.4	127.24	409.13	-613.39	38.044	287.78	-1351.2	126.18	348.4	-1232.2	454.15	471.98	-1168.2	425.51	491.74	-1185.1	354.39	471.77	-1236.9	372.09	459.96	-1042.6	863.07	529.93	-970.63	860.97	539.54	-993.36	772.86	525.97	-1061.5	776.52	515.1	-698.55	516.07	208.85	-746.05	489.46	199.8	-721.22	431.45	205.6	-678.6	463.47	214.7	-805.59	822.54	173.38	-868.93	803.95	145.16	-836.29	737.32	163.92	-779.44	755.09	189.6
4	0.012543	-622.29	1749.7	281	-827.62	1551.9	540.48	-903.8	1555.5	87.745	-872.38	1085.4	520.75	-856.91	1021.4	170.52	-1083.3	1099.6	382.01	-1068.4	1082.4	253.75	-1095.2	1063	317.15	-912.44	1156.1	127.17	-897.21	1197.1	524.61	-908.86	939.36	127.7	-958.36	985.31	558.01	-1086.5	596.44	480.74	NaN	NaN	NaN	-741.74	568.2	357.91	-772.26	565.07	201.25	-1059	64.97	357.2	-364.85	221.59	236.19	-1138.7	54.317	314.27	-417.33	157.27	293.03	-444.81	136.59	165.4	-1162.8	45.542	449.32	-1248	153.4	431.34	-1240.7	163.49	329.86	-569.86	164.24	282.65	-595.66	143.88	216.98	-640.23	53.897	258.64	-1354.2	155.46	376.78	-618.11	34.025	225.04	-1353.7	128.49	409.07	-605.96	37.243	288.87	-1350.4	127.46	348.45	-1229	454.64	471.84	-1165.3	425.53	491.65	-1182.7	354.54	471.66	-1234.2	372.65	459.97	-1037.5	862.33	529.66	-965.56	859.97	539.45	-988.58	771.94	525.9	-1056.6	775.81	514.87	-691.3	514.96	209.64	-738.73	488.25	200.37	-713.81	430.29	206.27	-671.32	462.38	215.58	-798.33	821.4	173.74	-861.61	802.77	145.39	-828.98	736.17	164.38	-772.21	753.96	190.11
5	0.016724	-616.14	1748.3	280.42	-821.41	1550.5	539.82	-897.82	1553.9	87.158	-866.56	1084.1	520.63	-849.94	1020.1	170.34	-1077	1098.1	381.06	-1061.8	1080.7	252.89	-1088.8	1061.4	316.22	-906.05	1154.5	126.84	-891.43	1195.7	524.15	-901.54	937.9	127.47	-952.77	984.16	557.78	-1082.1	595.86	480.64	NaN	NaN	NaN	-735.13	567.01	358.55	-764.87	563.82	201.63	-1059	64.926	357.21	-357.06	220.56	238.63	-1138.6	54.255	314.19	-409.86	156.24	295.2	-436.79	135.73	167.38	-1162.6	45.588	449.32	-1247	154.12	431.29	-1239.7	164.15	329.83	-562.47	163.18	284.15	-587.87	142.82	218.19	-632.69	53.228	259.7	-1353.2	156.83	376.73	-610.43	33.372	226.19	-1352.9	129.8	409.01	-598.64	36.433	290	-1349.6	128.81	348.49	-1225.7	455.15	471.68	-1162.2	425.54	491.58	-1180.2	354.7	471.57	-1231.5	373.24	460	-1032.3	861.57	529.38	-960.34	858.95	539.37	-983.64	771	525.85	-1051.6	775.09	514.62	-683.9	513.81	210.41	-731.26	487.01	200.93	-706.28	429.1	206.93	-663.9	461.23	216.45	-790.89	820.24	174.13	-854.1	801.57	145.64	-821.47	735.01	164.84	-764.79	752.82	190.64
